<?xml version="1.0" standalone="no"?>
<!DOCTYPE svg PUBLIC "-//W3C//DTD SVG 20010904//EN"
 "http://www.w3.org/TR/2001/REC-SVG-20010904/DTD/svg10.dtd">
<svg version="1.0" xmlns="http://www.w3.org/2000/svg"
 width="256.000000pt" height="256.000000pt" viewBox="0 0 256.000000 256.000000"
 preserveAspectRatio="xMidYMid meet">
<metadata>
Created by potrace 1.11, written by Peter Selinger 2001-2013
</metadata>
<g transform="translate(0.000000,256.000000) scale(0.100000,-0.100000)"
fill="#000000" stroke="none">
<path d="M1779 1932 c-15 -10 -45 -41 -68 -70 -23 -29 -58 -62 -79 -75 -47
-30 -198 -73 -322 -92 -95 -15 -222 -50 -280 -78 -136 -63 -274 -193 -335
-316 -74 -147 -80 -323 -15 -451 11 -22 20 -44 20 -49 0 -5 -25 -38 -55 -73
-67 -76 -89 -119 -80 -157 14 -67 113 -114 157 -75 11 11 38 56 59 102 21 45
45 85 52 88 8 3 41 -2 73 -11 102 -29 147 -36 224 -37 71 -1 166 8 180 17 4 2
22 7 40 10 105 19 285 123 403 234 119 113 189 216 232 345 31 92 39 151 38
272 -1 112 -23 205 -74 312 -54 113 -106 145 -170 104z m-207 -519 c21 -19 23
-42 6 -66 -8 -10 -54 -28 -108 -42 -195 -52 -319 -144 -459 -337 -65 -91 -91
-109 -130 -88 -40 21 -27 66 47 165 150 201 304 312 506 365 89 24 115 24 138
3z"/>
</g>
</svg>
