<?xml version="1.0" standalone="no"?>
<!DOCTYPE svg PUBLIC "-//W3C//DTD SVG 20010904//EN"
 "http://www.w3.org/TR/2001/REC-SVG-20010904/DTD/svg10.dtd">
<svg version="1.0" xmlns="http://www.w3.org/2000/svg"
 width="260.000000pt" height="260.000000pt" viewBox="0 0 260.000000 260.000000"
 preserveAspectRatio="xMidYMid meet">
<metadata>
Created by potrace 1.11, written by Peter Selinger 2001-2013
</metadata>
<g transform="translate(0.000000,260.000000) scale(0.100000,-0.100000)"
fill="#000000" stroke="none">
<path d="M130 1300 l0 -1170 1170 0 1170 0 0 1170 0 1170 -1170 0 -1170 0 0
-1170z m2230 -5 l0 -1065 -1060 0 -1060 0 0 1065 0 1065 1060 0 1060 0 0
-1065z"/>
<path d="M897 2074 c-38 -25 -78 -85 -121 -179 -15 -33 -34 -67 -42 -76 -8 -8
-24 -54 -35 -100 -12 -46 -50 -156 -84 -245 -80 -205 -121 -334 -139 -432 -7
-43 -20 -90 -30 -103 -9 -14 -13 -28 -10 -31 3 -4 0 -16 -6 -29 -10 -18 -10
-38 0 -93 7 -39 16 -75 20 -81 4 -5 10 -23 13 -40 10 -55 56 -170 69 -174 7
-2 27 -15 45 -28 17 -13 48 -29 67 -34 71 -20 163 53 263 206 88 134 154 222
183 244 l29 21 67 -64 c80 -79 226 -181 273 -191 19 -4 41 -14 48 -21 33 -32
146 -57 284 -62 124 -4 139 -2 178 17 97 50 165 139 181 236 l9 58 -67 63
c-76 72 -143 105 -173 86 -23 -15 -181 -16 -268 -1 -85 13 -161 50 -206 100
-38 43 -40 58 -9 74 10 6 33 24 49 40 60 59 165 138 266 201 127 80 218 145
245 175 12 13 33 47 48 75 25 46 27 55 17 92 -8 29 -24 52 -56 77 -24 20 -47
45 -50 56 -4 10 -14 19 -23 19 -9 0 -36 19 -59 42 l-43 42 -48 -18 c-26 -10
-62 -24 -81 -31 -18 -7 -36 -16 -40 -21 -3 -5 -58 -43 -121 -84 -63 -41 -142
-98 -175 -125 -98 -83 -225 -175 -225 -165 0 6 18 30 40 54 29 31 36 46 28 54
-8 8 -5 18 11 38 28 35 43 93 35 135 -15 76 -80 169 -119 169 -15 0 -26 7 -30
20 -4 13 -15 20 -30 20 -13 0 -36 5 -52 11 -68 27 -90 28 -126 3z"/>
</g>
</svg>
